<?xml version="1.0" encoding="UTF-8"?>
<svg id="Layer_2" data-name="Layer 2" xmlns="http://www.w3.org/2000/svg" viewBox="0 0 111.6 112.29">
  <defs>
    <style>
      .cls-1 {
        fill: #fff;
        stroke-width: 0px;
      }
    </style>
  </defs>
  <g id="Layer_2-2" data-name="Layer 2">
    <g id="Layer_1-2" data-name="Layer 1-2">
      <g>
        <path class="cls-1" d="M29.03,46.69l-.05.7c.02-.23.04-.46.06-.69h-.01ZM56.03,108.01c-.82,0-1.63-.02-2.42-.06h.05c1.18.19,2.43.21,3.6.04h.07-1.29M28.88,48.77h0l.62.28c-.21-.09-.41-.19-.62-.28M31.84,81.81h0c.08-.07.16-.14.24-.21l-.25.2h0ZM30.93,47.55h0s.08.04.12.05c-.04-.02-.08-.03-.12-.05M29.03,46.69l-.05.7c.02-.23.04-.46.06-.69h-.01ZM44.16,75.82c.52-.28,1.04-.56,1.56-.82-.52.27-1.04.54-1.56.82M34.07,82.52h0s.08-.06.12-.09c-.04.03-.08.06-.12.09M57.26,4.27c-1.17-.17-2.41-.15-3.59.04-.02,0-.04,0-.07.01.79-.04,1.61-.06,2.44-.06.41,0,.83,0,1.29.02h-.07Z"/>
        <path class="cls-1" d="M55.59,110.32c-.77,0-1.54-.06-2.29-.19l-.27-.06-19.11-5.27,19.8.95c1.12.05,2.21.07,3.55.04l.35,4.38c-.67.1-1.36.14-2.03.14M31.92,87.09l-.03-2.4-2.25,1.95v-5.87l1.04-.85h.02s1.23,1.51,1.23,1.51l.89-.73.36.45.62-.31.23.46v.52h-.3l.57.7h1.96-1.96l1.29,1.59-3.68,2.98h.01ZM33.74,81.81h.31-.31ZM45.21,77.76l-2.1-3.87c.54-.29,1.07-.58,1.61-.85l2,3.92c-.51.26-1.01.53-1.51.8M28.59,51.06l-.62-.29h-.01l1.53-3.32-.77-.06-.61,1.3.61-1.31-1.93-.15.29-3.9,4.31,2.03-.15,1.57.43-.9-.09.23-.35.7.35-.69h0l.18-.36-.57,1.47-.02.2h-.09l-.84,2.07-.19-.08s-.07-.03-.11-.05l.98-1.96-.72-.06-1.62,3.56h.01ZM53.7,6.52l-.52-4.36.11-.02c1.41-.23,2.88-.25,4.26-.05h.06l-.35,4.39c-1.33-.03-2.44-.01-3.57.04"/>
        <path class="cls-1" d="M108.05,65.66c-.11-.02-11.12-2.42-25.76-1.75-.37.02-.75.04-1.12.06-8.61.48-16.76,1.92-24.23,4.29-1.37.44-2.73.91-4.06,1.41-.15.06-.3.11-.45.17-.21.08-.41.16-.62.24-.26.1-.52.21-.78.31-.03.01-.07.03-.1.04-.21.08-.42.17-.63.26-.16.06-.31.13-.47.2-.2.08-.39.17-.59.25-.18.08-.37.16-.55.24-.21.09-.42.19-.63.28-.18.08-.37.17-.55.25-.6.28-1.19.56-1.78.85-.43.21-.85.43-1.27.65-.24.13-.49.26-.73.39-.49.26-.97.52-1.45.79,0,0-.03.01-.04.02-.46.26-.92.53-1.38.8-.23.14-.47.28-.7.42s-.47.29-.69.43c-.18.11-.36.23-.54.34-.52.33-1.03.66-1.53,1.01-.16.11-.33.22-.49.33-.14.1-.28.19-.42.29-.05.03-.1.07-.15.1-.17.12-.33.23-.5.36-.42.3-.83.6-1.25.91-.15.11-.3.22-.44.34-.22.16-.43.33-.64.5-1.92-7.46-2.93-15.84-2.93-24.33,0-2.18.07-4.37.2-6.52.12.05.24.1.36.15l.13.05c.27.12.54.23.82.34.28.12.57.23.85.35.61.25,1.22.49,1.83.72.2.08.41.15.62.23.35.13.7.26,1.05.38.29.1.58.2.87.3.37.13.74.25,1.11.37.5.17,1.01.33,1.51.48.56.17,1.12.34,1.69.5.21.06.41.12.62.17.16.05.32.09.47.13.25.07.5.13.74.2.52.13,1.03.26,1.55.38.28.07.57.13.85.2.28.06.57.13.85.19.57.12,1.14.24,1.71.35.28.06.57.11.85.16.29.05.57.1.85.15h.02c.28.05.56.1.84.14.57.09,1.15.18,1.72.26.28.04.56.08.84.11.62.08,1.24.15,1.86.22.25.03.5.05.75.07.29.03.58.05.86.08.29.02.58.05.87.07,1.98.15,3.96.22,5.96.22,2.98,0,5.97-.16,8.97-.49.75-.08,1.49-.17,2.24-.28,2.24-.3,4.49-.7,6.72-1.18.13-.03.26-.06.4-.09.13-.03.26-.06.39-.09,15.32-3.47,24.94-9.92,25.35-10.19l.56-.38-.17-.66C102.54,19.79,81.64,2.97,57.48,2.33h-.07c-.49,0-.94-.02-1.37-.02-.87,0-1.74.02-2.57.06h-.06c-10.01.48-19.66,3.74-27.9,9.42-8.07,5.57-14.48,13.22-18.51,22.13-3.17,6.99-4.78,14.47-4.78,22.21s1.61,15.24,4.8,22.25c3.08,6.77,7.45,12.73,12.99,17.73,9.19,8.29,21.06,13.19,33.41,13.78h.06c.83.04,1.7.06,2.57.06.44,0,.89,0,1.37-.02h.08c12.21-.32,24.05-4.85,33.36-12.74,9.21-7.82,15.6-18.61,17.97-30.39l.19-.94-.94-.21h-.03ZM106.24,43.03h0c-.1.06-.21.13-.33.2-.1.06-.22.13-.34.21-.05.03-.09.06-.14.08-.04.03-.09.05-.14.08-.09.06-.19.12-.3.17-.05.03-.1.06-.16.09-.07.04-.15.08-.22.13-.12.07-.25.14-.38.21-.14.08-.29.16-.44.24-.25.14-.51.28-.78.42-.21.11-.43.23-.66.35s-.46.24-.71.36c-.27.14-.55.28-.84.42-.31.15-.64.31-.98.47-.14.06-.28.13-.42.2s-.28.13-.43.2-.29.14-.44.2c-.15.07-.3.14-.45.2-.3.14-.62.28-.94.41-.48.21-.98.42-1.49.62-.17.07-.34.14-.52.21-.06.03-.13.05-.19.08-.46.18-.92.36-1.4.54-.19.07-.38.14-.58.22-.19.07-.38.14-.57.21-1.35.49-2.77.96-4.27,1.42-.2.06-.4.12-.61.18-.22.07-.43.13-.65.19-.05,0-.09.03-.14.04-.37.11-.75.21-1.13.31-.05.02-.1.03-.16.04-.19.05-.38.1-.57.15-.23.06-.45.12-.68.18-.52.13-1.05.26-1.59.39-.03,0-.06,0-.08.02-.14.03-.29.07-.43.1.15-.03.29-.07.43-.1-.42-12.69-3.05-24.65-7.44-33.8-3.06-6.37-6.83-11.07-10.97-13.79,20.16,3.17,36.92,18.06,42.15,38.14M53.6,4.33s.05,0,.07-.01c1.18-.19,2.43-.21,3.59-.04h.07c5.99.88,11.66,6.29,15.96,15.25,4.32,9,6.89,20.83,7.26,33.38-.34.07-.68.14-1.02.21-.02,0-.04,0-.05,0-.35.07-.69.13-1.04.19-.3.06-.6.11-.9.16-.09.02-.17.03-.26.04-.26.04-.51.08-.76.12-.15.03-.3.05-.44.07-.16.03-.31.05-.47.07-.2.03-.39.06-.59.08-.22.03-.45.06-.68.09-.08,0-.17.02-.25.03-.25.04-.49.06-.74.09-.11.02-.23.03-.34.04-.29.04-.59.07-.88.1-.7.07-1.4.14-2.1.19-.7.06-1.4.1-2.09.14-.35.02-.7.04-1.04.05-.35,0-.7.03-1.04.03-.36,0-.72.02-1.08.02-.69,0-1.38,0-2.07,0-.34,0-.69,0-1.03-.02-2.09-.06-4.18-.2-6.26-.42-.35-.04-.69-.07-1.04-.12-.31-.04-.62-.08-.93-.12-.04,0-.09,0-.14-.02-.33-.05-.67-.09-1-.14-.35-.05-.69-.1-1.03-.16-.25-.04-.5-.08-.75-.12-.14-.02-.28-.05-.42-.07-.34-.06-.68-.12-1.02-.19-.26-.05-.51-.1-.76-.15-.06,0-.12-.02-.18-.04-.3-.06-.6-.12-.9-.19-.05,0-.09-.02-.14-.03-.27-.06-.54-.12-.81-.18-.07-.02-.15-.04-.23-.05-.32-.07-.64-.15-.96-.23-.32-.08-.65-.16-.98-.24-.03,0-.06-.02-.09-.02-.27-.07-.55-.14-.82-.22-.09-.02-.17-.05-.26-.07-.24-.06-.47-.13-.71-.19-.11-.03-.23-.06-.34-.1-.29-.08-.57-.17-.86-.25-.02,0-.04,0-.05-.02l-.69-.21c-.22-.07-.44-.14-.65-.21-.1-.03-.2-.06-.3-.1-.21-.06-.41-.13-.62-.2-.14-.05-.28-.09-.42-.14-.22-.07-.44-.15-.66-.23-.12-.04-.23-.08-.34-.12-.23-.08-.45-.16-.68-.24-.13-.05-.26-.1-.4-.14-.18-.06-.36-.13-.54-.2l-.54-.21c-.14-.05-.28-.11-.42-.16-.21-.08-.42-.16-.62-.25-.2-.08-.4-.16-.61-.24-.06-.02-.12-.05-.18-.07-.3-.12-.6-.25-.9-.38-.05-.02-.1-.04-.15-.06-.24-.1-.47-.2-.71-.31-.13-.06-.26-.11-.4-.17-.04-.02-.08-.04-.12-.05-.04-.02-.08-.03-.12-.05h0c.91-11.3,3.67-21.8,7.78-29.64s9.4-12.66,14.89-13.59M46.86,5.07c-3.67,2.49-7.06,6.55-9.88,11.93-4.15,7.9-6.95,18.4-7.94,29.68-6.83-3.23-13.53-7.47-19.95-12.63C16.33,18.65,30.4,7.99,46.86,5.07M29.04,46.7c-.02.23-.04.46-.06.69l.05-.7h.01ZM4.16,56.14c0-7.04,1.38-13.84,4.1-20.24,6.63,5.28,13.56,9.6,20.61,12.87l.05-.68c-.02.23-.03.45-.05.68.21.1.41.19.62.28l-.62-.28c-.16,2.43-.25,4.9-.25,7.37,0,8.98,1.11,17.84,3.22,25.67l.25-.2c-.08.07-.17.14-.24.21.06.2.11.41.17.61l-.17-.61c-4.22,3.53-8.03,7.6-11.35,12.11-10.4-9.79-16.34-23.5-16.34-37.79M21.96,95.25c3.07-4.21,6.59-8.03,10.47-11.36,3.3,11.05,8.41,19.23,14.38,23.3-9.16-1.66-17.78-5.77-24.85-11.93M57.33,108h-.07c-1.17.18-2.41.16-3.6-.03h-.05c-8.08-1.34-15.36-10.83-19.54-25.43h0s.08-.06.12-.09c.04-.03.08-.06.12-.09.24-.19.49-.39.73-.58.24-.18.47-.37.71-.54.02-.01.04-.03.06-.04.23-.18.47-.35.7-.52,0,0,0,0,.02-.02.24-.18.48-.35.72-.52,0,0,.02-.02.03-.02.18-.13.36-.26.55-.38.11-.08.23-.16.34-.24.17-.12.35-.24.52-.36.04-.02.08-.05.12-.08.24-.16.48-.32.72-.47.18-.12.36-.23.54-.35.13-.08.26-.16.39-.24.2-.12.4-.25.6-.37.22-.14.43-.27.65-.39.3-.18.59-.35.89-.52.24-.14.49-.28.74-.42.02-.01.03-.02.05-.03.26-.14.51-.29.77-.42.52-.28,1.04-.56,1.56-.82.26-.14.52-.27.78-.4.76-.38,1.52-.74,2.28-1.08.18-.08.35-.16.53-.24.12-.05.23-.1.35-.16.26-.11.51-.22.77-.33.26-.11.53-.22.79-.33.26-.11.52-.21.79-.32.29-.12.57-.23.86-.34.23-.09.46-.18.69-.27.02,0,.04-.01.05-.02.25-.09.51-.19.76-.28.29-.11.58-.21.87-.31.5-.17.99-.34,1.48-.5.26-.08.51-.17.76-.25,0,0,.03,0,.04-.01.25-.08.51-.16.76-.24.26-.08.52-.16.78-.23.26-.08.52-.16.78-.23.26-.08.52-.15.78-.22.25-.07.51-.14.76-.21.26-.07.53-.14.79-.21.26-.07.52-.13.77-.19.26-.06.51-.13.77-.19.26-.06.51-.12.76-.18.51-.12,1.02-.23,1.52-.34.48-.1.97-.2,1.44-.29h.05c.25-.05.5-.1.75-.14.25-.05.49-.09.74-.14.25-.04.49-.09.73-.13.42-.07.85-.14,1.27-.21.23-.04.46-.07.69-.11.16-.02.32-.05.48-.07.87-.13,1.72-.24,2.56-.34.22-.03.44-.05.66-.08.26-.03.53-.06.79-.09.2-.02.4-.04.6-.06.17-.02.34-.03.51-.05.13-.01.27-.02.4-.04.36-.03.73-.06,1.08-.09.48-.04.95-.07,1.41-.1-1.03,11.03-3.83,21.23-7.91,28.83-4.15,7.7-9.44,12.38-14.91,13.18M64.11,107.38c9.22-6.05,16.24-21.71,18.02-41.49,3.28-.16,6.37-.16,9.2-.06.41.01.82.03,1.22.05.71.03,1.41.07,2.09.11.16,0,.31.02.47.03.18.01.35.02.52.04.24.02.48.04.72.05.24.02.48.04.71.06.23.02.46.04.69.06s.45.04.67.06c.11.01.22.02.33.03.76.07,1.48.15,2.15.23.19.02.38.05.57.07.74.09,1.43.18,2.05.27.16.02.31.04.45.07,1.18.18,2.1.34,2.73.45-4.6,20.78-21.85,36.68-42.57,39.99"/>
        <path class="cls-1" d="M56.03,112.17c-.89,0-1.78-.02-2.63-.06h-.1c-12.87-.62-25.22-5.72-34.79-14.35-5.77-5.2-10.32-11.41-13.52-18.46-3.31-7.29-4.99-15.08-4.99-23.16s1.68-15.84,4.98-23.12c4.2-9.27,10.86-17.23,19.27-23.03C32.81,4.08,42.83.69,53.23.18h.12c1.3-.07,2.59-.09,4.1-.05h.16c25.12.7,46.84,18.2,52.83,42.59l.53,2.15-1.84,1.25c-.41.28-10.35,6.95-26.1,10.52l-.7.16c-2.39.52-4.71.93-7,1.24-.76.1-1.53.2-2.29.28-5.09.55-10.24.65-15.32.28l-1.01-.08c-.26-.02-.52-.05-.78-.07l-.76-.07c-.64-.07-1.27-.14-1.9-.22l-.87-.12c-.58-.08-1.17-.17-1.76-.26-.22-.04-.45-.07-.68-.11h-.14l-.2-.06c-.29-.05-.52-.09-.75-.14-.28-.05-.57-.1-.87-.16-.59-.11-1.17-.23-1.76-.36l-.77-.17c-.4-.09-.69-.16-.98-.23-.52-.12-1.05-.25-1.58-.39l-1.26-.34c-.2-.05-.42-.12-.65-.18-.56-.16-1.14-.33-1.71-.5-.52-.16-1.04-.32-1.56-.5-.37-.12-.75-.25-1.13-.38l-.12-.04c-.26-.09-.53-.18-.79-.28-.35-.13-.72-.26-1.08-.39l-.63-.24c-.38-.14-.76-.29-1.14-.44-.03,1.09-.05,2.19-.05,3.28,0,7.08.72,14.11,2.1,20.55.06-.05.13-.09.2-.14.05-.03.13-.09.21-.14.08-.06.24-.17.4-.28l.48-.33c.52-.35,1.05-.7,1.59-1.04l.56-.35c.23-.15.47-.3.72-.44l.71-.43c.46-.27.91-.54,1.38-.8l.17-.09c.42-.24.92-.52,1.43-.78.23-.13.49-.26.75-.4.43-.22.87-.44,1.31-.66.61-.3,1.22-.6,1.84-.88l1.22-.55c.17-.08.37-.16.57-.25.18-.08.39-.17.6-.26l.48-.2c.2-.08.42-.18.65-.27.02,0,.06-.03.11-.05.26-.11.52-.21.78-.31l1.11-.43c1.33-.5,2.73-.99,4.15-1.44,7.65-2.43,15.98-3.91,24.77-4.39.39-.02.77-.04,1.15-.06,14.78-.67,25.85,1.7,26.32,1.8l3.05.68-.61,3.05c-2.47,12.27-9.11,23.5-18.7,31.64-9.65,8.19-21.93,12.9-34.59,13.26h-.25c-.47.02-.94.03-1.39.03M54.1,105.8c.94.15,1.93.16,2.85.02h.07c4.76-.7,9.48-4.98,13.29-12.05,3.62-6.72,6.2-15.65,7.38-25.38l-2.71.29c-.82.1-1.66.21-2.5.33l-1.14.17c-.42.07-.83.14-1.25.21-.25.04-.48.08-.72.13-.25.04-.48.08-.7.13-.28.05-.51.09-.74.14l-.11.02c-.5.1-.93.19-1.37.28-.48.1-.98.21-1.48.33l-.75.18c-.25.06-.49.12-.74.18-.26.06-.51.13-.75.19l-1.5.4c-.26.07-.51.14-.75.21-.26.07-.51.15-.75.22-.28.08-.53.16-.78.23l-.74.23c-.27.08-.48.15-.69.22-.57.19-1.05.35-1.54.52-.28.1-.56.2-.84.3l-1.45.55c-.3.11-.57.22-.84.33l-3.14,1.34c-.73.33-1.47.68-2.21,1.05-.25.12-.5.25-.75.38-.51.26-1.01.53-1.51.8-.23.12-.45.25-.68.37l-.12.07c-.23.13-.47.26-.7.4-.29.17-.58.33-.86.5-.23.13-.43.25-.63.38l-.94.59c-.21.13-.37.23-.54.34l-1.62,1.09c-.22.15-.39.27-.55.39l-.07.05c-.24.17-.44.31-.63.45l-.07.05c-.22.16-.44.32-.66.49l-.09.07c-.16.12-.31.23-.45.34,3.98,12.95,10.42,21.3,17.37,22.45l.12.02h-.02ZM84.13,68.01c-1.6,14.68-6.13,27.3-12.45,35.24,15.6-5.25,27.94-18.09,32.29-34.08-.11-.02-.23-.03-.34-.05l-.44-.06c-.61-.09-1.28-.18-2.01-.26l-.55-.07c-.66-.08-1.37-.16-2.11-.23l-4.01-.32c-.68-.04-1.36-.08-2.06-.11-.4-.02-.79-.03-1.2-.05-2.4-.08-4.79-.08-7.12-.01M24.98,94.91c4.29,3.43,9.11,6.13,14.25,7.98-3.09-3.97-5.76-9.09-7.85-15.07-2.29,2.19-4.44,4.57-6.41,7.1M9.24,39.44c-1.91,5.33-2.87,10.94-2.87,16.7,0,12.82,5.04,25.25,13.9,34.47,2.75-3.49,5.8-6.69,9.1-9.57-1.93-7.68-2.94-16.25-2.94-24.9,0-2,.05-4.02.16-6.02-5.91-2.85-11.73-6.43-17.35-10.68M41.61,49.18l.08.02c.27.08.55.16.82.24l.32.09c.25.07.47.13.68.19l.23.06c.31.09.57.16.83.22l.11.03c.31.08.62.16.93.23.32.08.63.15.94.22l.14.03c.35.08.61.14.87.19l.16.04c.29.06.57.12.85.18l.14.03c.29.06.53.11.76.15.36.07.68.13,1.01.19l.39.07c.27.05.51.09.75.12.34.05.67.11,1.01.16.33.05.65.1.97.14l.14.02c.3.04.59.08.89.11.36.05.69.08,1.01.11,2.02.22,4.07.36,6.09.41.38,0,.68.02.99.02.69,0,1.35,0,2.02,0,.34,0,.66,0,.98-.02.43,0,.76-.02,1.09-.04.34,0,.68-.03,1.02-.05.67-.03,1.35-.08,2.02-.13.69-.05,1.37-.11,2.04-.18.29-.03.57-.06.85-.09l.3-.04c.3-.04.52-.06.73-.09l.23-.03c.28-.04.49-.06.69-.09.23-.03.4-.05.57-.08.18-.02.31-.04.44-.07.2-.03.31-.05.43-.07.31-.05.55-.09.79-.13l.3-.05c.27-.05.53-.09.8-.14.09,0,.17-.03.25-.05-.55-11.55-3.01-22.37-6.98-30.63-3.98-8.28-9.05-13.26-14.29-14.02h-.11c-.97-.14-1.92-.13-2.84.01l-.11.02c-4.8.81-9.52,5.23-13.3,12.44s-6.39,16.83-7.4,27.23h.02c.29.13.58.25.87.37l.16.06c.22.09.4.17.58.24.23.09.43.17.62.25l1.85.69c.24.09.46.17.67.24l.3.1c.25.09.45.16.65.22.17.06.29.1.4.14.24.08.43.14.62.2l1.6.5.03.02ZM71.64,8.98c1.98,2.47,3.8,5.42,5.41,8.75,4.2,8.74,6.84,20.01,7.54,31.97l.44-.12c.37-.1.74-.2,1.1-.3l.14-.04c.2-.06.4-.12.6-.18l.6-.18c1.41-.43,2.81-.9,4.17-1.39l1.12-.42c.45-.17.91-.35,1.36-.53.05-.02.14-.06.23-.09l.47-.19c.49-.2.97-.4,1.44-.61.31-.13.61-.26.9-.39l4.18-2.01c.21-.11.42-.22.62-.33.28-.15.53-.28.77-.41l.94-.53c-4.65-15.71-16.71-27.97-32.03-33.03M105.26,43.29l.03.05h.01l-.02-.04h-.02ZM11.85,33.43c4.97,3.87,10.11,7.18,15.33,9.87,1.24-10.35,3.99-19.95,7.85-27.32,1.29-2.45,2.71-4.67,4.23-6.62-11.75,4.21-21.62,12.78-27.42,24.07"/>
        <path class="cls-1" d="M57.43,109.95h-.02c-.48.01-.93.02-1.37.02-.88,0-1.74-.02-2.57-.06h-.06c.72.11,1.46.17,2.2.17.63,0,1.26-.04,1.87-.13h0-.05M81.18,63.97c.38-.02.75-.04,1.12-.06h0l-1.12.06ZM32.09,81.61l-.25.2h0l.17.61c-.06-.2-.11-.41-.17-.61l.24-.21"/>
        <path class="cls-1" d="M55.6,112.28c-.84,0-1.69-.07-2.54-.2l.34-4.38h.15c1.22.06,2.41.08,3.8.05h.07v1.61-1.61,1.63l.48,2.73-.14.03h-.03l-.1.02c-.66.09-1.35.13-2.03.13M33.23,83.52l-.95-1.16-2.39.66-.14-.51-.54-1.4,1.48-1.2h.01l1.45,1.79,1.74-.67.07.22h0l.17.6-1.51.42.86,1.06-.19.16h0l-.05.04h-.01ZM81.29,66.17l-.12-2.25h-1.07,1.07l-.12-2.14h0l3.44-.19v4.44l-2.11.1c-.36.02-.73.03-1.09.05h0Z"/>
        <path class="cls-1" d="M82.16,54.57l.39-.08h0c-.13.02-.26.06-.39.08M82.07,52.59c.15-.03.29-.06.43-.1h0c-.14.03-.29.06-.43.1M70.04,54.42c.7-.05,1.4-.12,2.1-.19-.7.07-1.4.14-2.1.19M67.95,54.56c.7-.04,1.39-.08,2.09-.14-.7.06-1.39.1-2.09.14M62.72,54.66c.69,0,1.38,0,2.07,0h-2.07M50.99,55.58c.57.09,1.15.18,1.72.26-.57-.08-1.15-.16-1.72-.26M46.71,54.77c.57.12,1.14.24,1.71.35-.57-.11-1.14-.23-1.71-.35M28.88,48.77c.01-.23.03-.45.05-.68l-.05.68h0l.62.28c-.21-.09-.41-.19-.62-.28M57.47,2.33c-1.33-.18-2.73-.17-4.07.05h.06c.83-.04,1.7-.06,2.57-.06.44,0,.89,0,1.37.02h.07,0,0Z"/>
        <path class="cls-1" d="M52.41,58.02c-.59-.08-1.18-.17-1.77-.27l.71-4.35c.56.09,1.11.17,1.67.25l-.6,4.36h0ZM48.01,57.28c-.59-.11-1.18-.23-1.77-.36l.94-4.3c.55.12,1.11.23,1.66.34,0,0-.83,4.32-.83,4.32ZM63.75,56.87h-1.07l.06-4.4h2.01l.06,4.4h-1.07M68.06,56.75l-.23-4.4c.68-.04,1.36-.08,2.04-.13l.09,1.14-.09-1.14c.68-.05,1.36-.11,2.04-.18l.46,4.38c-.72.08-1.44.14-2.16.2s-1.44.11-2.15.14M82.63,56.72l-.49-2.24h-1.79,1.79l-.45-2.07.31-.07-.42-1.91.36-.08h.05l.46,1.91,2.31-.5v4.51l-2.13.46h0ZM28.59,51.06l-2-.92.05-.91h0l.06-.86c0-.15.02-.3.03-.45l2.45.18.61-1.34h.02l.6.28-.5,1.11,1.22.09-.03.43c0,.07,0,.15-.01.22v.03l-1.47-.11-1.02,2.24h-.01ZM53.51,4.57h-.06v-1.34l-.41-3.03c1.54-.25,3.17-.27,4.72-.06l.15.03-.44,2.5-.04,1.85c-.54,0-.97-.02-1.4-.02-.84,0-1.67.02-2.46.06h-.06Z"/>
        <path class="cls-1" d="M28.92,48.09c-.02.23-.03.45-.05.68h0l.05-.68Z"/>
        <path class="cls-1" d="M30.78,53.79l-4.18-4.18.09-1.24c0-.15.02-.3.03-.45l2.79.21.92-.92-.91.92,1.6.12-.03.43v.22l-.3,4.89h-.01Z"/>
        <path class="cls-1" d="M29.04,46.7c-.02.23-.04.46-.06.69l.05-.7h.01Z"/>
        <polygon class="cls-1" points="28.1 48.69 28.09 48.68 28.7 47.38 26.78 47.23 27.07 43.33 31.37 45.36 31.17 47.58 28.71 47.38 28.1 48.69"/>
        <path class="cls-1" d="M31.05,47.6s-.08-.03-.12-.05h0s.08.04.12.05"/>
        <path class="cls-1" d="M30.24,49.65l-.19-.08s-.07-.03-.11-.05l1.08-2.16.8-1.81-.36.93.45-.89-1.07,2.51-.6,1.56h0Z"/>
        <path class="cls-1" d="M48.42,55.12c-.57-.11-1.14-.23-1.71-.35.57.12,1.14.24,1.71.35"/>
        <path class="cls-1" d="M48.01,57.28c-.59-.11-1.18-.23-1.77-.36l.94-4.3c.55.12,1.1.23,1.66.34,0,0-.83,4.32-.83,4.32Z"/>
        <path class="cls-1" d="M52.71,55.83c-.57-.08-1.14-.16-1.72-.26.57.09,1.15.18,1.72.26"/>
        <path class="cls-1" d="M52.41,58.02c-.59-.08-1.18-.17-1.77-.27l.71-4.35c.56.09,1.11.17,1.67.25l-.6,4.36h0Z"/>
        <path class="cls-1" d="M82.59,52.47s-.06,0-.08.02c-.14.03-.29.07-.43.1.15-.03.29-.07.43-.1.03,0,.06,0,.08-.02"/>
        <polygon class="cls-1" points="82.53 54.74 81.58 50.44 82.12 50.32 83.14 54.6 82.53 54.74"/>
        <path class="cls-1" d="M98.06,47.28c-.3.14-.62.28-.94.41.32-.14.63-.28.94-.41"/>
        <path class="cls-1" d="M97.98,49.72l-1.73-4.05.92-.4,1.8,4.02c-.32.15-.65.29-.99.43"/>
        <path class="cls-1" d="M103,44.88c-.21.11-.43.23-.66.35.23-.12.45-.24.66-.35"/>
        <path class="cls-1" d="M103.35,47.19l-2.03-3.91.64-.34,2.09,3.88c-.22.12-.45.24-.7.37"/>
        <path class="cls-1" d="M106.24,43.03h0c-.1.06-.21.13-.33.2.12-.08.23-.14.33-.2"/>
        <path class="cls-1" d="M107.03,45.13l-1.27-2.09h-1.73,1.73l-1.01-1.67.3-.18,3.38-2.16v5.23l-1.02.65c-.11.07-.24.15-.38.23"/>
        <path class="cls-1" d="M32.01,82.43l-.17-.61h0c.06.2.11.41.17.61"/>
        <polygon class="cls-1" points="33.57 83.2 32.46 82.31 29.89 83.02 29.42 81.32 32.83 77.06 34.14 81.85 32.46 82.31 33.57 83.2"/>
        <path class="cls-1" d="M34.19,82.43s-.08.06-.12.1h0s.08-.06.12-.1"/>
        <polygon class="cls-1" points="31.92 87.09 31.87 81.48 32.83 80.7 34.31 82.52 36.27 82.52 34.31 82.52 35.6 84.12 31.92 87.09"/>
        <path class="cls-1" d="M45.72,75c-.52.27-1.04.54-1.56.82.52-.28,1.04-.56,1.56-.82"/>
        <path class="cls-1" d="M45.21,77.76l-2.1-3.87c.54-.29,1.07-.58,1.61-.85l2,3.92c-.51.26-1.01.53-1.51.8"/>
      </g>
    </g>
  </g>
</svg>