<?xml version="1.0" encoding="utf-8"?>
<!-- Generator: Adobe Illustrator 28.2.0, SVG Export Plug-In . SVG Version: 6.00 Build 0)  -->
<svg version="1.1" id="Layer_2_00000006686711779725059460000000661352447037028006_"
	 xmlns="http://www.w3.org/2000/svg" xmlns:xlink="http://www.w3.org/1999/xlink" x="0px" y="0px" viewBox="0 0 1041 529.8"
	 style="enable-background:new 0 0 1041 529.8;" xml:space="preserve">
<style type="text/css">
	.st0{fill:none;stroke:#000000;}
</style>
<g id="Layer_2-2_00000001625685304238707700000014573877758593194627_">
	<g id="Layer_2-2">
		<g id="Layer_1-2">
			<path class="st0" d="M242.9,49c-0.4-3-1.1-5.8-2.2-8.6c-0.3-1-1-1.9-2-2.4c-0.6-0.2-1.3-0.2-2,0l-10.1,1.5
				c-0.8,0-1.6,0.3-2.3,0.9c-1.3,1.4,0,3.6-0.1,5.5c-0.1,2.1-1.9,3.9-4,4.5c-2.1,0.4-4.3,0.4-6.4-0.1l-14.1-2.2
				c4.1-1.3,7.9-3.8,10.7-7.1c1.9-2.2,2.8-6.3,0.2-7.3c-0.8-0.2-1.6-0.3-2.4-0.2c-6.4,0-11.4-5.3-17.4-7.5
				c-7.9-2.8-16.6-0.1-21.6,6.5l7.5,0.4c0.7,0,1.4,0.2,2,0.5c1.6,1.3-0.4,4-0.2,6.1c0.3,2.8,4,3.3,6.7,3.6s6.2,2.5,4.9,5
				c-13.9,4.8-27.9-9.3-42.5-7.6c-3.7,0.4-7.2,1.9-10.8,2.8c-21.9,5.5-44.6-9.3-67.1-6.1c-5,0.8-9.9,2.1-14.6,3.9
				c-3,1-6.2,2.1-8.5,4.4s-3.1,6.3-1,8.7c-5.8,0.5-11.6-0.1-17.2-1.6c3.1,1.7,5,5,5,8.5c-9,1.5-17.8,4.2-26.2,8
				c1.6,2.6,3.4,5,5.4,7.2L1.2,83.3c3.9,1,5.9,6.2,3.6,9.5c4-1.8,6.5-6.4,10.8-7.3c2.8-0.6,5.7,0.5,8.3,1.6s5.6,2.1,8.3,1.3
				s4.8-4.4,3-6.7c11.8-3.4,24-5.3,36.2-5.7c0.9-0.1,1.9,0.1,2.8,0.5c1.6,1.1,1.2,3.5,1.1,5.4s1.4,4.5,3.2,3.6c-2,1.8-0.3,5.1,1.7,7
				s4.3,4.4,3.1,6.9c-0.3,0.6-0.8,1.1-1.2,1.8c-0.9,1.9,0.5,4.1,2.2,5.3s3.7,2.1,4.9,3.9s0.6,4.8-1.4,5l-5.9-7.5
				c-2,2.1-3.4,4.7-4,7.5c6.2,5.1,7.2,15.5,1.9,21.6c-2.7,3.1-6.5,5-9.8,7.5s-6.4,5.9-6.4,10.1c0,7.1-0.6,13.7,2.1,20.3
				c4.9,12.2,10.6,24,17,35.4c1.7,3,3.8,6.3,7.3,6.8c-4.3-10.5-8.2-21.1-11.6-31.9c2.2,0,4.8,0.2,6.2,2c1.1,1.5,0.9,3.6,1.2,5.4
				c0.4,1.8,1.2,3.5,2.1,5l20.6,36.6c1.7,3,3.7,6.3,6.9,7.5c2.1,0.8,4.5,0.6,6.4,1.8c1.5,0.9,2.5,2.5,4,3.3
				c4.3,2.4,10.3-2.2,14.4,0.6c1.2,0.8,1.9,2.1,3,3c3.7,3.2,9.9,1.1,14.2,3.5c2.8,1.6,4.2,4.7,5.7,7.5c3.7,7.1,9.7,14,17.7,14.5
				c2.5,0.2,5.1-0.3,7.5,0.3s4.9,2.7,4.5,5.2c-0.7,4.2,1.4,8.9,0.9,13.1c-1,7.8-12,11.2-13,18.9c-0.2,1.7,0.1,3.5-0.3,5.1
				c-0.5,2-2,3.7-2.6,5.7c-1,3.8,1.7,7.7,4.8,10.3s6.6,4.8,8.3,8.4c1.8,3.8,0.9,8.3,1.5,12.5c1.2,9.1,9.1,15.9,17.2,20.2
				c2.5,1.3,5.1,2.6,6.7,4.9c2.1,3,1.9,7,2.6,10.5c1.7,8.8,9.1,16,9.3,25c0.1,6.4-3.4,12.1-5.5,18.1c-4,11.6-2.7,24.4,3.4,35
				c1.6,2.7,3.5,5.2,4.6,8.1c2,5.2,1.4,11,3.2,16.2c2.4,6.9,9.1,12.6,8.5,19.9c3,6.3,9.7,9.4,16.5,11.3l12.1,3.4
				c2.3,0.6,4.7,1.3,7.1,0.8s4.6-2.4,4.5-4.8c-5.9-1.3-12-2.8-16.9-6.4s-8.2-10-6.4-15.8c0.9-2.7,2.7-5.8,1-8
				c-1-1.3-2.8-1.6-3.9-2.8c-1.8-1.8-1.1-4.8,0.1-7s3.1-4.1,3.6-6.6c0.5-2.8-0.8-5.7-3.2-7.1c2.2-0.8,4.3-2.1,6-3.8
				c1.6-1.8,2.3-4.6,1.1-6.6c3.7,0.5,8,0.7,10.4-2.1c1.9-2.2,1.8-5.6,1-8.4s-2-5.6-2.1-8.6c8.5,0.4,16.9,0.1,25.4-0.9
				c-1.2-4.1-4-7.6-7.7-9.6c3.8-0.6,7.3-5.2,8.5-8.9s0.9-7.7,0.1-11.5c-0.3-1-0.3-2-0.1-3c0.4-1.4,1.8-2.2,3-2.9l18.9-10.9
				c1.1-0.6,2.1-1.3,3-2.2c2-2.3,1.7-5.8,0.7-8.7s-2.6-5.6-3-8.6c-1.2-9.1,8.5-15.6,11.8-24.1c1.3-3.4,1.5-7,1.8-10.6
				c0.3-3.8,0.3-8.3-2.7-10.8c-2.8-2.4-7.2-1.8-10.2-4c-2.7-2-3.6-6-6.6-7.6c-2.7-1.5-6.1-0.5-9.1-1.2c-5.3-1.2-8.6-7.3-14-7.9
				c-3-0.3-6.5,1.2-9-0.6c-2.2-1.6-2.3-4.7-2.7-7.4c-1.5-8.5-8.1-15.1-16.6-16.6c-3.1-0.5-6.5-0.3-9.2-2c-2.7-1.7-3.9-5-6.1-7.4
				c-3.4-3.9-8.8-5.3-13.8-6.5l-20.5-4.8c-3.6-0.9-8.3-1.3-10.3,1.9c-0.6,1.2-1,2.5-1.2,3.8c-1.5,4.9-6,8.3-11.1,8.4
				c-1.7-2.9-4.5-5.1-7.8-6c-2.1-0.6-4.3-0.6-6.3-1.5c-4.4-2.1-6.2-7.4-4.1-11.8c0.1-0.1,0.1-0.3,0.2-0.4c2.4-4.3,1.7-9.8-1.9-13.2
				c-3.5-3.1-8.5-3.9-13.2-3.6c-1.2-2.7,0.8-5.7,3-7.6s4.9-3.9,5.4-6.8c0.8-4.6-5.1-8-9.5-6.7s-7.2,5.6-9.1,9.9c-1.1,2.4-2,5-3.7,7
				s-4.4,3.5-7,2.9c-3.6-0.9-5-5.2-5.9-8.9c-1.1-4.9-2.2-9.9-1.9-14.9s1.9-10.2,5.6-13.6c6.1-5.6,15.3-5,23.5-4.1
				c-1.9-2.2-1.4-5.8,0.6-7.9c2.2-2,5.2-2.7,8.1-2c2.5,0.5,4.7,1.8,6.3,3.8c2.3,2.8,3,6.6,4.7,9.9s5.7,5.9,8.9,4.2
				c2.8-1.5,3.2-5.4,2.5-8.4s-2.2-6.1-1.9-9.2c0.5-6,6.7-9.6,12.2-12.1s11.8-5.8,12.7-11.8c0-1.2,0.2-2.3,0.6-3.4
				c0.6-1,1.5-1.8,2.5-2.3c16-10.6,32.3-21.3,50.7-27.1c1-0.3,1.1,0,2-0.2c1.4-0.8,0.5-3-0.9-3.8s-3-1.6-3.4-3.1
				c-0.2-1.1,0.4-2.2,0.6-3.4c0.4-2.8-2.9-5.4-5.5-4.3c-1.5-1.9,1.4-4.2,3.8-4.9c7.1-1.9,14.3-3.1,21.7-3.5c0.9-0.1,1.7,0,2.5,0.4
				c1.2,0.8,1.1,2.8,0.2,4s-2.2,2-3.3,3c-2.4,2.4-3.3,5.9-2.4,9.1c3.8,1.9,8,3.9,12.2,3.3s8-5.4,6-9.2c-1.9-3.5-7.4-4.3-8.4-8.2
				c-1.1-4.5,5.3-8.6,3.9-13c-0.6-1.9-2.6-3.1-4.1-4.5c-3.6-3.5-4.7-8.9-2.7-13.6c-4.9,0.9-10-0.7-13.5-4.2
				c-3.2-3.3-5.8-8.4-10.4-8.3c-4.2,0.1-7.9,5.1-11.8,3.6c-1-0.4-2-1.1-2.9-0.7c-0.6,0.4-1,1.1-1.1,1.8c-1,4.8,0.7,10.2-1.9,14.4
				c-2.8,4.5-9.4,5.1-12.9,9.2c-1.9,2.2-2.6,5.2-4.3,7.5s-5.4,3.8-7.4,1.8c2.1-4.3,0.9-9.4-2.8-12.4c-1.9-1.2-4-2.2-6.1-3
				c-2.4-1-4.7-2.3-6.9-3.8c-1.1-0.7-1.9-1.6-2.5-2.7c-0.4-1.4-0.4-2.9,0.2-4.3c2.1-6.1,7.5-10.5,13.9-11.5c2.7-0.4,5.9-0.2,7.8-2.3
				c1-1.1,1.5-2.8,2.9-3.2c0.9-0.2,1.8-0.1,2.6,0.3l10.2,3.6c1.1,0.5,2.4,0.7,3.6,0.6c1.3-0.2,2.2-1.3,2.1-2.6
				c-0.3-1.7-2.9-2.5-2.7-4.2c0.1-0.6,0.4-1.1,0.9-1.4c7.5-8,18.1-12.2,29-11.5c1.3,2.1-0.8,4.6-2.5,6.5s-3.1,5-1,6.5
				c0.8,0.4,1.8,0.6,2.7,0.6c2.5,0.3,5,1.1,7.3,2.2c3.5,1.5,7,3.2,10.4,5.1c-0.3-2.2-0.6-4.6,0.3-6.7s3.3-3.8,5.4-2.9
				c2,0.8,3.1,3.5,5.2,3.7c2.9,0.3,4-3.9,2.8-6.6s-3.6-4.9-3.8-7.8c-0.1-2,0.6-4.4-1-5.6c-0.6-0.4-1.2-0.6-1.9-0.7l-39.1-7.2
				c-2.3-0.4-5.7-0.1-5.8,2.3c-0.1,1.3,1.1,2.6,0.6,3.8c-0.6,1.3-2.4,1.2-3.7,1.6c-2.1,0.7-3.1,3.2-2.9,5.3c0.4,2.2,1.2,4.2,2.4,6
				C249.3,50.3,245.4,50.1,242.9,49L242.9,49L242.9,49L242.9,49z"/>
			<path class="st0" d="M211.7,15.8c-5.1-1.7-10.6,0-13.9,4.2c-0.6,0.9-1.2,2-0.6,2.9c0.8,1.3,2.7,0.8,4.2,0.3
				c2.1-0.8,4.4-0.8,6.6-0.2c1.4,0.5,2.6,1.3,3.9,1.7c1.4,0.6,2.9,0.3,4.1-0.6c0.9-1,1-2.5,1-3.8c0.1-0.9-0.1-1.8-0.8-2.5
				c-0.6-0.3-1.2-0.5-1.8-0.5c-1.4-0.3-2.7-1-3.6-2.1"/>
			<path class="st0" d="M225.8,11.9c-1.8-0.1-3.3,1.3-3.4,3c0,0.5,0.1,1,0.3,1.5c1.7,0.5,3.5,0.6,5.2,0.3c1.8-0.3,3.2-1.6,3.6-3.3
				c-2.1,0.4-4.2,0-5.9-1.1"/>
			<path class="st0" d="M273.1,5.4c-4.6,1-9.1,2.5-13.3,4.5c4.1,1.6,6.7,5.7,6.4,10.1c-0.2,0.8-0.2,1.7,0.1,2.5
				c0.5,1.2,1.9,1.6,3.2,1.9c2.2,0.7,4.6,1,6.9,0.9c2.4-0.1,4.5-1.4,5.7-3.5c0.3-1,0.7-1.9,1.2-2.8c3-4.6,11.9,1,15.1-3.4
				c1.1-1.6,1-3.9,2.5-5.1c0.8-0.5,1.6-0.9,2.6-1c6.5-1.3,13-2.2,19.5-2.8c3.1-0.3,7.2-1.4,7.2-4.5c-11.7-2.3-23.9-0.7-34.5,4.7
				c-3.9,1.9-8.9,6-12.6,3.4c-1.4-1-1.3-3.5-3.2-4.6C277.7,4.5,275.2,4.9,273.1,5.4L273.1,5.4L273.1,5.4z"/>
			<path class="st0" d="M311.4,12.5l5.5,1.1c-3.9-0.2-7.3,2.9-7.4,6.8c0,0.3,0,0.6,0,0.9c5.1,1.7,10.8,0,16.2,0.3s11.7,4.1,10.8,9.4
				c-0.3,1.6-1.2,3.2-0.7,4.8c0.3,1.1,1.3,1.9,1.9,2.9c1.1,2.1,0.2,4.8-1.2,6.7s-3.4,3.5-4.6,5.5c-3.1,5.1-1.4,11.6,0.5,17.3
				c0.5,2.1,1.5,4.1,2.9,5.8c2.8,2.9,7.3,3.2,11.3,3.3c3,0,6.3-0.1,8.2-2.4c2.4-3,0.7-7.6,2.3-11.1c1.5-3.2,5.2-4.5,8.5-5.5
				c6.1-1.8,12.4-3.3,18.2-6c7.2-3.3,14-8.5,21.9-8.9c2.2-0.1,4.5,0.1,6.6-0.5s4.2-2.5,4-4.7c-0.1-1.9-1.8-3.3-3-4.7
				s-2.2-3.6-1.1-5.1l20.8-3.9c-1.5-4-2.6-9.3,0.8-11.9c1.2-0.9,2.9-1.3,3.9-2.5c1.8-1.9,0.9-5.3-1.2-6.9s-4.8-2-7.4-2.3
				c-9.1-0.8-18.3-0.3-27.4,0.2c-17.9,1-35.7,2-53.6,2.9c-3.6,0.2-7.8-0.1-11,1.1c-2.8,1-4.8,2.9-8,3.6
				C323.2,10,316.7,9.2,311.4,12.5L311.4,12.5L311.4,12.5z"/>
			<path class="st0" d="M409.9,56c-0.6-0.1-1.1,0-1.6,0.4c-0.3,0.3-0.5,0.8-0.5,1.2c-0.4,2,0.1,4.1,1.2,5.8c1.2,1.7,3.2,2.7,5.2,2.5
				c2.5-0.3,4.3-2.4,6.6-3.5c3.5-1.6,18.4-4.1,8.1-9.6c-3.5-1.9-5.9-0.2-8.6,1C417,55.5,413.4,56.2,409.9,56L409.9,56L409.9,56z"/>
			<path class="st0" d="M500.1,9.4c-1.2,0.5-2.2,1.4-2.9,2.5c-0.6,1.2-0.2,2.7,0.9,3.3c0.5,0.2,0.9,0.2,1.4,0.2l4.9,0.1
				c2.1,0.1,4.7,0.5,5.2,2.5c0.4,1.5-0.5,3.4,0.6,4.5c0.5,0.4,1.1,0.6,1.7,0.6c1.6,0.4,3.3,0.5,4.9,0.2c3.6-1,1.7-3.1,2.8-5.1
				c1.7-3,1.4-1.2,4.4-2.9c2.2-1.2,5.1-3.5,3.2-6.7C524.2,3.2,504.9,7,500.1,9.4L500.1,9.4L500.1,9.4z"/>
			<path class="st0" d="M596.7,6.6L593.8,7c-6.4,0.8-12.8,1.7-19,3.6c2.7,1.1,5.5,1.7,8.3,2c1.6,0.1,3.1,0.3,4.7,0.7
				c2.7,0.8,5.5,2.9,8.1,1.8c1.6-0.7,2.2-2.4,3.5-3.3c0.9-0.6,4.5-1.6,4.9-2.3C607.5,4.5,599.1,6.2,596.7,6.6L596.7,6.6L596.7,6.6
				L596.7,6.6z"/>
			<path class="st0" d="M609.2,19.5c-3.8,2.1-7.3,4.7-10.5,7.7c-1.3,1.2-2.7,2.8-2.6,4.6c0.2,2.4,2.8,3.8,5,4.8l9.1,3.8
				c1.1-1.5,0.1-3.7-1-5.2s-2.5-3.3-2-5.1c0.6-2.1,3.1-2.8,5.3-3.2c3.5-0.6,12.9-0.5,11.8-6.2C622.9,14.1,612.7,17.5,609.2,19.5
				L609.2,19.5L609.2,19.5z"/>
			<path class="st0" d="M607.3,394.6c-0.9,2.5-1,5.5,0.5,7.6c1.7,2.5,5,3.4,7.9,2.7c2.9-0.8,5.5-2.4,7.4-4.7
				c1.7-1.9,3.2-4.1,4.2-6.5c1.5-3.7,2.5-7.6,3.1-11.5l2.8-14.8c0.6-3.3,0.6-13.5-5.5-10.1c-1.7,0.9-5.5,8-7.2,10
				c-3.1,3.6-3.5,7.2-5.2,11.6C613.4,384.5,609.2,389.1,607.3,394.6L607.3,394.6L607.3,394.6z"/>
			<path class="st0" d="M928.5,470.4c-2-0.8-3.9-1.7-5.8-2.8c-1.9,5.1-2.8,10.5-2.9,16l13.6-7.7c2-1.2,4.4-2.8,4.3-5.1
				c0-0.6-0.2-1.2-0.8-1.5c-0.3-0.1-0.6-0.2-1-0.1c-2,0.2-3.9,1.2-5.8,1.9s-4.1,1.1-5.9,0"/>
			<path class="st0" d="M1000.3,475c-1.5,0.4-3,0.9-4.4,1.6c-3.1,1.6-5.2,4.6-8.1,6.7c-2.7,2-5.9,3.1-9.1,4.2
				c-0.9,0.8-0.5,2.5,0.5,3.2c1.1,0.6,2.3,0.9,3.6,0.8c3.3,0.1,6.8,0.1,9.7-1.5c1.6-1.1,3.2-2.3,4.6-3.6c3.4-2.8,7.5-4.7,11.5-6.5
				c1.5-0.5,2.8-1.4,4-2.4c2.5-2.5,2.7-6.3-0.9-7.2C1008.7,469.6,1003.2,474.1,1000.3,475L1000.3,475L1000.3,475z"/>
			<path class="st0" d="M1032.1,454.2c0.3-3.5-0.9-6.9-3.5-9.3c0,3.4-0.1,7.1-2.1,9.9c-1.4,2-3.5,3.4-5,5.3s-2.2,5-0.4,6.7
				c1.1,0.9,2.5,1.3,3.9,1.4c3.5,0.4,7.6,0.6,10.1-1.9c1.3-1.4,2-3.4,3.6-4.5c0.6-0.3,1.2-0.6,1.6-1.1c0.7-1.1-0.4-2.5-1.6-2.9
				s-2.6-0.2-3.8-0.6s-2.3-1.7-1.7-2.9"/>
			<path class="st0" d="M975.7,328.6c-1.8,0.5-3.8,0.6-5.6,0.3c-3.1-0.6-5.6-2.9-8.1-4.9c-6-4.6-13.3-7.1-20.8-7.3
				c-6.9-0.1-13.8,1.7-20.5,0.4c0.4,2.5,2.5,4.3,4.8,5.4s4.7,1.6,7,2.7c3.6,1.7,6.5,4.7,8,8.4c0.7,1.7,1.2,3.5,2.3,5
				c2.2,3,6.5,3.7,10.2,3.4c4.9-0.3,10-1.7,14.5,0.1c3.5,1.4,6,4.4,8.9,6.8s7,4.1,10.3,2.4c-7.1-2.3-11.9-9-11.8-16.4
				c3.3,0.3,12.7,0.2,12.2-5.4C986.5,324.8,978.5,328,975.7,328.6L975.7,328.6L975.7,328.6z"/>
			<path class="st0" d="M932.9,366.9c0.6-3.2,3.8-6,2.8-9.1c-0.7-2.1-3.2-3.2-5.4-3.2s-4.4,0.6-6.7,0.7c-1.5-0.1-2.9-0.1-4.4,0.1
				c-4.4,0.7-7.2,5.4-11.4,7c-2.5,1-5.4,0.8-8,1.5c-6,1.6-9.8,7.3-14,11.8c-6.8,7.4-15.6,12.5-25.4,14.8c-3.4,0.8-7.1,1.3-9.8,3.5
				c-3.6,2.9-4.5,8-5.3,12.5c-2.2,12.6-5.6,25-10.1,37l14.3,1.8c2.7,0.4,5.5,0.7,8.1-0.1c1.9-0.7,3.7-1.7,5.3-2.9
				c6.4-4,13.5-6.5,20.9-7.5c3.7-0.5,7.7-0.6,11.2,0.8s6.5,4.5,6.8,8.3c3.1-1,6.5-0.1,8.8,2.1c2.2,2.3,3.7,5.2,4.2,8.4
				c0.4,2,0.8,4.3,2.6,5.1c1.5,0.7,3.2,0,4.8-0.2c5.5-0.4,10,6,15.4,4.9c5.8-1.2,7.2-9.8,12.8-11.6c3.2-1,7.8,0.2,9.3-2.8
				c1.4-2.7-1.4-5.7-1.1-8.7c0.3-3.7,4.7-5.2,8-6.8c11.5-5.4,16.9-20.8,11.4-32.2c-3.3-6.8-9.8-12.1-11-19.5
				c-0.9-5.7,1.3-12.4-2.3-16.9c-1.8-2.3-5-3.5-6.1-6.3c-0.7-1.7-0.4-3.7-0.8-5.5s-2-3.7-3.8-3.2c-5.2,1.4-6.9,17.4-9.6,21.3
				C940.3,378.1,931.6,374.2,932.9,366.9L932.9,366.9L932.9,366.9L932.9,366.9z"/>
			<path class="st0" d="M836.8,334.6c-1.8-0.5-3.7-1-5.4-0.3s-2.7,3.2-1.3,4.5c10.7-0.4,21.4-0.8,32,0.6c12.2,1.7,24.3,5.8,36.6,4.6
				c-7-2.1-14.1-3.7-21.3-5l-12-2.3c-3.2-0.7-6.5-1.2-9.8-1.5C848.7,334.7,843.5,336.5,836.8,334.6L836.8,334.6L836.8,334.6z"/>
			<path class="st0" d="M847.5,297.4c-0.9-0.1-2-0.1-2.5,0.6c-0.4,0.7,0.1,1.7-0.2,2.5c-0.3,1.1-1.8,1.4-2.9,1.2s-2.4-0.5-3.4,0
				c-1.1,0.7-1.5,2.1-1.1,3.3c0.4,1.2,1.1,2.3,2,3.1c1.5,1.9,3.2,3.6,5.1,5.1c3.7,2.7,8.7,4,11,8c0.3,0.8,0.8,1.4,1.5,2
				c1.1,0.7,2.6,0.2,3.8-0.4l4.2-1.9c0.8-0.3,1.4-0.7,2-1.3c1-1.3,0.4-3.1-0.4-4.5s-1.8-2.9-1.7-4.5c0.3-2.9,4-4,5.5-6.4
				c1.5-2.5,0.5-5.6,0.7-8.5c0.2-3.4,2.3-7.8-1.1-10.3c-2.9-2.1-5.7-0.2-7.8,2.2C857.7,292.7,855.6,298.1,847.5,297.4L847.5,297.4
				L847.5,297.4z"/>
			<path class="st0" d="M872.9,246.8c1.4,2.7,4.4,4.4,6,7c1.7,2.9,1.5,6.6,3.3,9.4c1.9,2.9,5.7,4.4,6.7,7.7c1.2,3.6-1.5,7.9,0.6,11
				c1.5,2,4.5,2.4,6.5,0.9c0.1-0.1,0.2-0.2,0.3-0.2c1.8-2,1.7-5.1-0.2-7c-1.2-1.1-3-1.6-4-2.9c-0.5-0.8-0.9-1.6-1-2.5
				c-0.6-2.6-0.5-5.4,0.3-8c0.3-0.7,0.3-1.4,0.2-2.1c-0.5-1.4-2.3-1.4-3.6-2.1c-2.9-1.4-2.8-5.5-2.3-8.7c-0.3,2.1-7.9-1.5-8.7-2.7
				c-1.6-2.4-0.7-7-1-9.7C872.5,238.6,871.2,243.4,872.9,246.8L872.9,246.8L872.9,246.8z"/>
			<path class="st0" d="M796.5,289c-1.4-1.6-3.5-3.2-5.4-2.3c-1.4,0.7-1.8,2.7-1.3,4.2c0.7,1.5,1.7,2.7,3,3.6
				c3.9,3.2,8.1,6.1,11.5,9.9c6.1,6.7,9.3,15.8,16,22c1.3,1.4,3.1,2.4,5,2.7c1.9,0.2,4.1-1.1,4.3-3c0.2-1.6-0.9-3-2-4.2
				c-2.6-2.8-5.4-5.4-7.8-8.3c-1.1-1.1-1.8-2.6-2-4.2c0-1.6,1.4-3.2,3-2.8c-1.9-0.5-3.2-3.6-6-4.2c-2.3-0.5-2.8,0.9-5.5-0.2
				C804.2,300,800.1,293,796.5,289L796.5,289L796.5,289z"/>
			<path class="st0" d="M918.2,136.3c-1.5-0.4-3-1-4.4-1.6c-3.8-1.1-8.9,1.7-8.4,5.7c0.3,2.6,2.8,4.4,4.2,6.7
				c2,3.4,1.5,7.7,0.4,11.5c-0.3,1.2-0.8,2.3-1.5,3.3c-1,1-2.2,1.9-3.5,2.5c-5.2,2.9-9.8,6.8-13.5,11.5c-0.4,0.4-0.7,1-0.8,1.5
				c-0.2,1.3,1.2,2.3,1.9,3.4c1.7,2.5,0.5,5.8,0.6,8.9c0,0.9,0.3,1.7,1,2.2c1,0.5,2.2-0.4,2.8-1.4c1.8-3.3,0.5-8.7,3.9-10.3
				c0.7-0.3,1.5-0.4,1.9-1c0.7-0.9,0-2.3,0.4-3.4c0.5-1.6,2.8-1.7,4.5-1.6c3,0.1,5.9-0.3,8.7-1.2c1.1-0.3,2.1-0.8,2.9-1.7
				c1-1.3,0.9-3.1,0.7-4.8c-1-8.2-3.6-16.1-7.6-23.2c3,0.4,6.3,0.7,9-0.9c1.5-0.9,3.2-3.5,2.5-5.3
				C922.9,134.4,920.8,136.8,918.2,136.3L918.2,136.3L918.2,136.3z"/>
			<path class="st0" d="M529.4,181.2c0.4,1.9,0.7,4,0.1,5.9s-2.7,3.4-4.5,2.9c-1.5-0.4-2.3-1.9-3.4-3.1c-5.8-6.3-18.9-2.6-22.5-10.4
				c-1.5-3.2-0.5-7-1.5-10.3c-1.3-4-5.1-6.6-9.3-6.3c-1.9,0.3-3.6,0.8-5.3,1.6c-11.3,4.5-23.2,7.5-35.4,8.9
				c-2.3,0.1-4.6,0.6-6.8,1.2c-5,1.8-8.4,6.4-10.8,11.1s-4.2,9.8-7.5,14c-3.4,4.4-8.2,7.5-12.7,10.8c-1.7,1.1-3.1,2.6-4.2,4.4
				c-1,2-0.9,4.3-0.8,6.5l0.9,26.8c0.1,3.4,0.3,7,1.8,10.1c1.9,3.9,5.7,6.4,8.4,9.8c2.7,3.5,4.1,7.8,4,12.2c-0.1,1.8-0.2,3.9,1.1,5
				c0.8,0.5,1.8,0.8,2.8,0.8l36.3,3c6.4,0.5,13.5,1.4,17.6,6.2c2,2.3,3.5,5.6,6.6,5.9c1.3,0.1,2.5-0.4,3.8-0.5
				c3.3-0.3,6.1,2.2,7.9,5c2.7,4.2,4,9.1,3.5,14.1c-0.3,3.1-1.3,6.1-1.5,9.3c-0.8,11.9,9.3,22.2,9.5,34.1c0.1,7-3.2,13.5-6.4,19.7
				c5.2,7.9,1,18.5,3,27.7c2,8.8,9.3,15.6,11.1,24.5c0.8,4,0.9,9,4.4,11.1c1.6,0.8,3.3,1.1,5,1c10.5,0.1,20.8-2.2,30.2-6.9
				c4.4-2.2,9-5.4,9.7-10.3c0.6-3.9-1.4-8.3,0.7-11.7c2.4-4,8.5-3.7,12-6.8c5.7-5,1.2-14.6,3.5-21.8c2.1-6.5,9.2-9.9,12.7-15.8
				c1.4-2.5,2.4-5.2,3-8c1.6-6.7,2.6-13.5,3-20.4c0.1-4.2,0.4-8.4,0.9-12.5c3.8-23.6,27.2-39.5,34.8-62.2c0.7-2.2,1.1-5.1-0.9-6.3
				c-1.1-0.5-2.4-0.7-3.7-0.4l-16.7,2.1c-2.1,0.3-4.3,0.5-6.2-0.4s-3.3-3.3-2.3-5.1c2.8-5.1-3-11.7-5.6-16.9
				c-7-14.2-15.3-27.7-24.9-40.4c-0.6-0.6-1-1.5-1.1-2.4l4.8,0.2c-1.6-5.8-4.2-12.1-9.8-14.2c-3.2-1.2-6.6-0.8-10-0.6
				C549.2,184.2,538.9,182.7,529.4,181.2L529.4,181.2L529.4,181.2z"/>
			<path class="st0" d="M558.9,51.5c2.5,2.7,5.3,5.5,9,6c6.4,0.8,11.1-5.8,14-11.6c0.2,3.1,2.8,5.4,5.9,5.2c1.6-0.3,3.1-0.9,4.5-1.7
				c12.8-7,27-10.7,41.6-10.8c-0.3-2.3,1.2-4.4,3.4-4.9c3-0.6,5.6,2,7,4.6s2.3,5.7,4.6,7.7s6.7,1.9,7.5-1c0.9-2.8-2-5.1-4.4-6.8
				s-4.9-4.6-3.3-7c12.2-2.7,24.5-5.4,37-6c2.1,0.1,4.2-0.3,6.2-1.1c1.9-0.9,3.4-3.1,2.9-5.1c-5.6,1.3-11.4-0.9-14.7-5.6
				c17.3-1.4,35.8-2.7,51.2,5.5c1.8,4-7.5,7.2-5,10.8c0.8,1.1,2.4,1.3,3.8,1.3c10.7,0.2,21.4,0.4,32-1.2c3.9-0.6,7.8-1.4,11.6-0.9
				c6.5,0.8,12,5.1,18.3,6.5c2.6,0.6,5.5,0.6,7.7-0.9s3.1-4.9,1.3-6.9c6-5.9,15.9-4.4,23.8-1.6s15.4,7.3,23.7,7.9
				c6,0.5,12-1.2,18-0.1c3.7,0.6,7.2,2.3,10.8,3.3c6.9,1.9,14.1,1.5,21.3,1.6c18.2,0.2,36.2,3.8,53.1,10.5c2.2,0.7,4.2,1.9,5.9,3.5
				c1.6,1.7,2.4,4.3,1.3,6.3l-17.5-2.5c1.7,3.2,5.9,3.8,9.4,4.9s7,4.9,5,7.9c-3.8-1.2-7.1,2.6-9,6s-4.2,7.6-8.1,7.8
				c-3.5,0.2-7.8-2.8-10.1-0.1c3.2,4,5.9,8.3,8.1,12.9c2.3,4.7,3.9,10.7,0.8,14.9c-0.5,0.8-1.2,1.3-2.1,1.6
				c-2.5,0.6-4.1-2.4-5.9-4.3c-2.3-2.3-5.7-3-8.7-4.1s-6.3-3.2-6.5-6.5c-0.2-2,0.9-3.9,1.7-5.8c1.3-3.1,1.9-6.5,1.7-9.9
				c-0.2-2.7-0.9-5.6-2.9-7.5s-5.4-2.5-7.5-0.8c-1,0.8-1.8,2.1-3,2.2c-2.3,0.1-4-3.8-5.8-2.5c0.2,1.4-0.1,2.9-0.8,4.1
				c-5.4,4.7-13.8,2.7-20.7,4.4c-3.3,0.9-6.5,2.3-9.5,4.1c-1.1,0.5-2,1.3-2.7,2.3c-0.9,1.7,0.1,3.9,1.6,5c1.6,1,3.5,1.6,5.4,1.8
				c8.5,1.6,17.2,4.1,23.9,9.6s11.1,14.5,9,22.9l-16.8-16.1c0.6,6.7,1,13.5,1.1,20.3c0.1,1.3-0.1,2.6-0.5,3.9
				c-1.2,2.6-4.4,3.5-7.3,4.1c-3.1,0.6-5.1,3.6-4.5,6.7c0,0.2,0.1,0.4,0.2,0.6c1,3.3,3.5,5.9,5.8,8.4s4.6,5.5,4.9,8.9
				s-2.3,7.3-5.7,7.1c-2.6-0.2-4.5-2.5-5.7-4.9s-1.8-5-3.4-7c-5-6.1-16.4-3.5-20.9-10c-2.3,2.7-3.2,6.4-2.1,9.8
				c2.1-1.3,5-0.1,6.6,1.8s2.3,4.4,3.6,6.5c1.7,2.9,4.3,5.5,4.6,8.8c-0.1,1.3,0,2.5,0.1,3.8c0.4,2,2.1,3.5,3.3,5.2
				c2.8,3.9,2.6,9.4,0.8,13.8s-5,8.2-8.2,11.8c-5.5,6.3-11.2,12.6-17.8,17.9c-1.9,1.5-3.9,3-5,5.1s-1.2,5,0.6,6.6
				c-1.3,0.1-3.6,0.7-4.9,0.8c-0.5-5.1-0.5-10.3-0.3-15.5c-5.1-2.4-10.5,4.1-9.9,9.7s4.7,10.1,7.6,14.9c2.1,3.5,3.7,7.6,3,11.7
				s-4.3,7.8-8.4,7.4c-6.5-0.6-9.2-9.9-15.7-11c-0.6-0.1-1.2-0.1-1.7,0.2c-1,0.5-1.1,1.8-1.2,2.9c-0.3,5.4-0.5,10.9,1.6,15.8
				c3,7.2,11,13.3,9.3,20.9c-8.9-4.1-13.5-14.1-15.7-23.8s-2.5-19.7-6.2-28.8c-2.9,3.7-8.9,0.6-11.5-3.2c-2.5-3.6-4-7.9-6.4-11.6
				s-6.1-7-10.5-7.2c-4.6-0.2-8.6,3-12.2,6c-2.9,2.5-5.9,5-7.6,8.4c-2.5,5-1.8,10.8-1.9,16.4c-0.1,6-1.4,12.3-5.5,16.7
				s-11.6,5.9-16.1,2c-2.3-2.1-3.5-5.1-4.5-8.1c-4.9-14.3-9-28.8-12.2-43.5c-0.8,3.4-3.7,7.7-6.5,5.7c-0.6-0.5-1.2-1.2-1.5-1.9
				c-5.3-8.9-15-14.3-24.8-17.5s-20.2-4.7-29.9-8.2c-5.5-2-10.7-4.6-15.5-7.7c-2.5,3.7-2.8,8.5-0.8,12.5c2.2,3.8,7,6,11.2,4.7
				c2.2-0.7,4-2.2,6.1-2.9s5-0.4,6,1.7c0.9,2-0.5,4.4,0.2,6.4c1,3.1,5.8,3.4,7.4,6.2c1.2,2.1,0.2,4.9-1.5,6.7s-4.1,2.7-6.3,3.9
				c-7,3.9-11.9,10.5-18,15.6s-14.7,8.9-22,5.6c1.7-8.8-8.7-15.2-10.6-23.9c-0.6-2.9-0.3-5.9-1.2-8.7c-1.3-4.1-4.9-6.8-7.9-9.9
				c-7.2-7.6-11.1-17.8-10.7-28.3c0.2-3.6,0.8-7.3,0-10.8s-3.7-6.9-7.3-6.8c-8.2,0.4-18.6,1-23-6.1c-1.5-2.5-2.2-6.2,0-8.1
				c1.6-1.4,3.9-1.2,6-1l18.6,1.8c4.3,0.4,9,0.8,12.8-1.5s5.3-8.3,1.9-11c-2.5-1.9-7-1.9-7.8-4.9c-0.6-2.6,2.2-5.5,0.7-7.7
				c-1.1-1.6-3.6-1.1-5.1,0s-2.6,2.9-4.3,3.7c-3,1.5-6.5,0.1-9.7-0.9s-7.5-1.1-9,1.9c-1.7,3.3,1.5,7.6-0.2,11
				c-2.3,4.4-10,1.9-13.1,5.7c-3.7,4.3,2.5,10.8,1.3,16.3c-3.2,1.6-7,1.4-10-0.6c-3-2-4.6-5.5-4.2-9.1c0.3-2.5,1.6-5,0.7-7.4
				c-0.7-1.9-2.6-3-4.4-4l-18-10c-1.7,3.1,0.4,7,3.1,9.3c2.7,2.3,6,4.1,7.7,7.2c2.3,4.4,0.7,9.9-3.5,12.4c-0.5,0.4-1.2,0.5-1.8,0.3
				c-0.6-0.3-1-0.9-1.2-1.6c-3.2-8.1-8-16.2-15.6-20.4s-18.6-3.4-23.6,3.8c-1.2,1.7-2,3.6-3,5.4c-5.5,9.6-17.3,14.1-28.4,13.8
				c-1.1,0.1-2.1-0.2-3.1-0.7c-1.8-1.2-1.7-3.9-1.4-6l1.2-9.1c0.2-1.8,0.6-3.9,2-5c2-1.6,5-0.6,7.6-0.6c4-0.2,7.5-2.9,8.7-6.7
				c1.1-3.9-0.1-8-3-10.8c-1.2-1.1-2.8-2.5-2.2-4c0.5-0.8,1.4-1.4,2.3-1.6c4.7-1.4,9.6-1.7,14.2-3.3s9.1-4.9,10.1-9.6
				c0.3-1.4,0.5-3.2,1.8-3.9c0.7-0.3,1.4-0.4,2.1-0.4c5.2-0.7,8.9-5.3,8.6-10.5c2.2-1.5,5.3-0.4,7.4,1.2s4,3.8,6.6,4.5
				c4.8,1.3,9.5-3,14.5-3c2.1,0,4.3,0.7,6.3,0c2-0.7,3.2-2.7,4.8-4.2s4.2-2.4,5.7-0.8l-1.2-9c4.9,1.2,10.2,0.3,14.4-2.6L532,71.3
				c-0.5-0.1-1-0.4-1.5-0.8c-1.1-1.2,0-3.1,0.9-4.5c2.2-3.3,2.6-8.8-1.1-10.5c-2.5-1.1-5.3,0.2-7.7,1.6l-11.4,6.4
				c-0.4,2.2,2.3,3.4,3.9,4.9c2.7,2.4,3,6.6,0.5,9.3c-1.2,1.4-3,2.2-4.9,2.2c1.5,2,2.1,4.6,1.5,7l-7.7,0.6c-0.9,0.2-1.8,0-2.5-0.5
				c-0.8-0.7-0.7-2-0.9-3.1c-0.5-2.6-3-4.4-5.6-4.9s-5.3,0.1-7.9,0.7c-1.1,0.4-2.3,0.4-3.4-0.1c-0.6-0.4-1.1-1-1.3-1.7
				c-1.1-2.8-0.1-6,1.8-8.3s4.3-4.1,6.6-6c5.4-4.7,9.3-10.8,11.4-17.6c4.2-1.8,8.6-4.2,12.9-6c6.5-3.3,13.9-4.7,21.2-4.1l14.3,0.3
				c4.2,0.1,8.6,0.2,12.5,1.8s7.4,5.1,7.7,9.4c0.2,1-0.2,2-0.9,2.6c-0.5,0.3-1.2,0.4-1.8,0.4C564.5,50.4,562.9,51.4,558.9,51.5
				L558.9,51.5L558.9,51.5z"/>
			<path class="st0" d="M444.5,96.5c1.1-1.1,1.6-2.7,1.1-4.2c-2.8-1.1-5.9-0.5-8.1,1.5c-0.9,0.9-1.6,1.8-2.2,2.9
				c-1.9,3.1-3.5,6.8-2.5,10.2c0.2,0.8,0.7,1.4,1.3,1.8c0.5,0.2,1,0.3,1.5,0.2c2.1,0,4.1-0.1,6.2-0.4c1.3-0.2,2.7-0.5,3.2-1.7
				c0.6-1.6-0.9-3.3-0.5-4.9c0.3-0.7,0.8-1.4,1.3-1.9c0.6-0.5,0.9-1.3,0.8-2.1c-0.2-0.8-1.3-1.2-1.8-0.5"/>
			<path class="st0" d="M455.3,82.6c-1.9-0.4-3.8-0.5-5.6-0.3c-0.4,0-0.8,0.1-1.2,0.3c-0.4,0.3-0.6,0.6-0.7,1.1
				c-0.8,2.7,0.5,5.5,3.1,6.5c0.7,0.2,1.3,0.4,1.9,0.8c1.6,1.2,0.6,3.8,0.9,5.8c0.3,2.2,2.5,4.1,2.1,6.3c-0.3,1.8-2.2,3.2-1.9,4.9
				c0.3,1.8,2.6,2.4,4.5,2.5c1.1,0.2,2.2,0.1,3.2-0.4c1-0.7,1.7-1.7,2-2.9c0.8-2.3,1.1-4.7,0.9-7.1c0-1.1-0.3-2.2-0.8-3.1
				c-0.6-0.8-1.2-1.5-1.9-2.1C458.3,90.6,462,84.4,455.3,82.6L455.3,82.6L455.3,82.6z"/>
		</g>
	</g>
</g>
</svg>
